<svg xmlns="http://www.w3.org/2000/svg" xmlns:xlink="http://www.w3.org/1999/xlink" id="Capa_1" x="0" y="0" version="1.1" viewBox="0 0 512 512" xml:space="preserve" style="enable-background:new 0 0 512 512"><rect style="fill:#d80027" width="512" height="341.337" y="85.331"/><g><rect style="fill:#ffda44" width="512" height="37.921" y="161.174"/><rect style="fill:#ffda44" width="512" height="37.921" y="237.028"/><rect style="fill:#ffda44" width="512" height="37.921" y="312.882"/><rect style="fill:#ffda44" width="512" height="37.921" y="388.736"/><rect style="fill:#ffda44" width="512" height="37.921" y="85.331"/></g><rect style="fill:#4a1f63" width="256" height="170.663" y="85.331"/><polygon style="fill:#f0f0f0" points="172.522 155.819 172.522 170.66 165.101 170.66 165.101 155.819 150.261 155.819 150.261 170.66 142.84 170.66 142.84 140.978 113.16 140.978 113.16 170.66 105.739 170.66 105.739 155.819 90.899 155.819 90.899 170.66 83.478 170.66 83.478 155.819 68.638 155.819 68.638 200.341 187.362 200.341 187.362 155.819"/></svg>