<svg xmlns="http://www.w3.org/2000/svg" xmlns:xlink="http://www.w3.org/1999/xlink" id="Capa_1" x="0" y="0" version="1.1" viewBox="0 0 512 512" xml:space="preserve" style="enable-background:new 0 0 512 512"><rect style="fill:#f0f0f0" width="512" height="341.326" y="85.337"/><rect style="fill:#d80027" width="211.478" height="126.141" y="300.522"/><rect style="fill:#0052b4" width="211.478" height="126.152" y="85.337"/><rect style="fill:#d80027" width="211.478" height="126.152" x="300.522" y="85.337"/><rect style="fill:#0052b4" width="211.478" height="126.141" x="300.522" y="300.522"/><path style="fill:#496e2d" d="M300.521,256.006c0,24.588-19.932,44.521-44.521,44.521s-44.521-19.932-44.521-44.521 S256,211.485,256,211.485S300.521,231.417,300.521,256.006z"/><path style="fill:#0052b4" d="M211.479,256.006c0-24.588,19.932-44.521,44.521-44.521s44.521,19.932,44.521,44.521"/><path style="fill:#d80027" d="M230.957,233.745v27.825c0,13.831,11.212,25.042,25.043,25.042c13.832,0,25.043-11.212,25.043-25.042 v-27.825H230.957z"/></svg>