<svg xmlns="http://www.w3.org/2000/svg" xmlns:xlink="http://www.w3.org/1999/xlink" id="Capa_1" x="0" y="0" version="1.1" viewBox="0 0 512 512" xml:space="preserve" style="enable-background:new 0 0 512 512"><rect style="fill:#f0f0f0" width="512" height="341.326" y="85.337"/><rect style="fill:#d80027" width="512" height="113.775" y="85.337"/><rect width="512" height="113.775" y="312.888"/><path style="fill:#ff9811" d="M320,236.29h-48c0-8.836-7.164-16-16-16s-16,7.164-16,16h-48c0,8.836,7.697,16,16.533,16H208 c0,8.836,7.164,16,16,16c0,8.836,7.164,16,16,16h32c8.836,0,16-7.164,16-16c8.836,0,16-7.164,16-16h-0.533 C312.303,252.29,320,245.127,320,236.29z"/></svg>