<svg xmlns="http://www.w3.org/2000/svg" xmlns:xlink="http://www.w3.org/1999/xlink" id="Capa_1" x="0" y="0" version="1.1" viewBox="0 0 512 512" xml:space="preserve" style="enable-background:new 0 0 512 512"><rect style="fill:#f0f0f0" width="512" height="341.326" y="85.337"/><g><rect style="fill:#0052b4" width="512" height="113.775" y="85.337"/><rect style="fill:#0052b4" width="512" height="113.775" y="312.888"/></g><polygon style="fill:#ffda44" points="228.582 261.936 256 214.447 283.418 261.936"/><polygon style="fill:#6da544" points="291.616 277.616 256 295.425 220.384 277.616 220.384 253.872 291.616 253.872"/><path style="fill:#ffda44" d="M289.579,216.485l-12.592,12.592c5.37,5.372,8.693,12.791,8.693,20.988 c0,16.392-13.289,29.68-29.68,29.68c-16.392,0-29.68-13.289-29.68-29.68c0-8.195,3.322-15.616,8.693-20.988l-12.592-12.592 c-8.594,8.594-13.91,20.466-13.91,33.579c0,26.228,21.261,47.489,47.489,47.489s47.489-21.261,47.489-47.489 C303.489,236.95,298.173,225.077,289.579,216.485z"/></svg>