<svg xmlns="http://www.w3.org/2000/svg" xmlns:xlink="http://www.w3.org/1999/xlink" id="Capa_1" x="0" y="0" version="1.1" viewBox="0 0 512 512" xml:space="preserve" style="enable-background:new 0 0 512 512"><rect style="fill:#6da544" width="512" height="341.326" y="85.337"/><polygon points="215.864 256.006 0 399.911 0 112.089"/><polygon points="512 112.089 512 399.911 296.136 256.006"/><polygon style="fill:#0052b4" points="512 112.089 296.136 256.006 512 399.911 512 426.668 471.875 426.668 256 282.752 40.125 426.668 0 426.668 0 399.911 215.864 256.006 0 112.089 0 85.331 40.125 85.331 256 229.248 471.875 85.331 512 85.331"/><polygon style="fill:#ffda44" points="512 112.089 296.136 256.006 512 399.911 512 426.668 471.875 426.668 256 282.752 40.125 426.668 0 426.668 0 399.911 215.864 256.006 0 112.089 0 85.331 40.125 85.331 256 229.248 471.875 85.331 512 85.331"/></svg>