<svg xmlns="http://www.w3.org/2000/svg" xmlns:xlink="http://www.w3.org/1999/xlink" id="Capa_1" x="0" y="0" version="1.1" viewBox="0 0 512 512" xml:space="preserve" style="enable-background:new 0 0 512 512"><polygon style="fill:#d80027" points="341.334 85.33 170.666 85.33 0 85.33 0 426.662 170.666 426.662 341.334 426.662 512 426.662 512 85.33"/><rect style="fill:#6da544" width="170.663" height="341.337" y="85.333"/><rect style="fill:#f0f0f0" width="170.663" height="341.337" x="170.663" y="85.333"/><path style="fill:#6da544" d="M208,255.996c0,26.509,21.491,48,48,48s48-21.491,48-48v-16h-96V255.996z"/><path style="fill:#ff9811" d="M320,223.996h-48c0-8.836-7.164-16-16-16s-16,7.164-16,16h-48c0,8.836,7.697,16,16.533,16H208 c0,8.836,7.164,16,16,16c0,8.836,7.164,16,16,16h32c8.836,0,16-7.164,16-16c8.836,0,16-7.164,16-16h-0.533 C312.303,239.996,320,232.833,320,223.996z"/></svg>