<svg xmlns="http://www.w3.org/2000/svg" xmlns:xlink="http://www.w3.org/1999/xlink" id="Capa_1" x="0" y="0" version="1.1" viewBox="0 0 512 512" xml:space="preserve" style="enable-background:new 0 0 512 512"><rect style="fill:#f0f0f0" width="512" height="341.326" y="85.337"/><rect width="512" height="113.775" y="85.337"/><rect style="fill:#496e2d" width="512" height="113.775" y="312.888"/><g><polygon style="fill:#d80027" points="256 256.006 0 426.668 0 85.331"/><path style="fill:#d80027" d="M305.716,256c0-19.892,13.98-36.51,32.649-40.587c-2.869-0.627-5.847-0.966-8.904-0.966 c-22.95,0-41.553,18.603-41.553,41.553s18.603,41.553,41.553,41.553c3.058,0,6.035-0.339,8.904-0.966 C319.696,292.51,305.716,275.892,305.716,256z"/><polygon style="fill:#d80027" points="340.112 229.287 346.006 247.427 365.078 247.427 349.648 258.638 355.542 276.777 340.112 265.567 324.681 276.777 330.576 258.638 315.145 247.427 334.217 247.427"/></g></svg>